<svg id="Слой_1" data-name="Слой 1" xmlns="http://www.w3.org/2000/svg" viewBox="0 0 14 10"><defs><style>.cls-1{fill:#1c294d;}.cls-2{fill:#fc6e1d;}</style></defs><title>Монтажная область 1</title><path class="cls-1" d="M.33.83A.84.84,0,0,1,1.17,0H12.83a.84.84,0,0,1,.84.83.85.85,0,0,1-.84.84H1.17A.85.85,0,0,1,.33.83ZM.33,5a.84.84,0,0,1,.84-.83h7.5a.83.83,0,1,1,0,1.66H1.17A.84.84,0,0,1,.33,5Zm.84,3.33a.85.85,0,0,0-.84.84.84.84,0,0,0,.84.83H12.83a.84.84,0,0,0,.84-.83.85.85,0,0,0-.84-.84Z"/><path class="cls-2" d="M.33,5a.84.84,0,0,1,.84-.83h7.5a.83.83,0,1,1,0,1.66H1.17A.84.84,0,0,1,.33,5Z"/></svg>